<?xml version="1.0" encoding="iso-8859-1"?>
<!-- Generator: Adobe Illustrator 18.0.0, SVG Export Plug-In . SVG Version: 6.00 Build 0)  -->
<!DOCTYPE svg PUBLIC "-//W3C//DTD SVG 1.1//EN" "http://www.w3.org/Graphics/SVG/1.1/DTD/svg11.dtd">
<svg version="1.1" id="Capa_1" xmlns="http://www.w3.org/2000/svg" xmlns:xlink="http://www.w3.org/1999/xlink" x="0px" y="0px"
	 viewBox="0 0 408.111 408.111" style="enable-background:new 0 0 408.111 408.111;" xml:space="preserve">
<g>
	<path d="M225.618,96.642c12.69-8.768,21.236-25.012,21.236-43.575c0-25.13-5.085-50.82-42.799-50.82s-42.799,25.69-42.799,50.82
		c0,18.563,8.546,34.807,21.236,43.575c-28.077,8.424-48.438,32.819-48.438,61.539c0,14.806,7.541,25.32,22.412,31.249
		c10.886,4.34,26.008,6.361,47.588,6.361c21.581,0,36.702-2.021,47.588-6.361c14.871-5.929,22.412-16.442,22.412-31.249
		C274.056,129.462,253.695,105.066,225.618,96.642z"/>
	<path d="M91.565,286.688c12.688-8.769,21.234-25.013,21.234-43.575c0-25.13-5.085-50.82-42.8-50.82
		c-37.715,0-42.8,25.69-42.8,50.82c0,18.563,8.546,34.806,21.234,43.575C20.36,295.112,0,319.507,0,348.226
		c0,14.806,7.541,25.32,22.412,31.249c10.886,4.34,26.008,6.361,47.588,6.361c21.58,0,36.702-2.021,47.588-6.361
		C132.459,373.545,140,363.032,140,348.226C140,319.507,119.64,295.112,91.565,286.688z"/>
	<path d="M359.677,286.688c12.689-8.769,21.234-25.013,21.234-43.575c0-25.13-5.085-50.82-42.8-50.82
		c-37.715,0-42.8,25.69-42.8,50.82c0,18.563,8.546,34.806,21.234,43.575c-28.074,8.424-48.435,32.819-48.435,61.538
		c0,14.806,7.541,25.32,22.412,31.249c10.886,4.34,26.008,6.361,47.588,6.361c21.58,0,36.702-2.021,47.588-6.361
		c14.871-5.929,22.412-16.442,22.412-31.249C408.111,319.507,387.751,295.112,359.677,286.688z"/>
	<path d="M251.347,382.271c-0.492-1.231-1.453-2.217-2.672-2.74c-1.218-0.523-2.594-0.541-3.826-0.048
		c-10.751,4.294-24.094,6.382-40.793,6.382s-30.042-2.087-40.793-6.382c-1.23-0.492-2.607-0.474-3.826,0.048
		c-1.219,0.523-2.18,1.509-2.672,2.74l-3.709,9.286c-1.024,2.564,0.225,5.473,2.788,6.497c13.153,5.255,28.924,7.81,48.212,7.81
		s35.059-2.555,48.212-7.81c2.564-1.024,3.813-3.934,2.788-6.497L251.347,382.271z"/>
	<path d="M56.635,166.908l9.19,3.942c0.643,0.275,1.312,0.406,1.97,0.406c1.938,0,3.784-1.135,4.597-3.03
		c4.564-10.639,12.523-21.55,24.33-33.357c11.811-11.808,22.722-19.767,33.358-24.331c1.219-0.523,2.18-1.508,2.672-2.74
		c0.491-1.231,0.475-2.608-0.049-3.827l-3.943-9.189c-1.089-2.539-4.03-3.712-6.566-2.623
		c-13.017,5.584-25.974,14.929-39.612,28.567c-13.64,13.639-22.984,26.597-28.568,39.615
		C52.923,162.879,54.098,165.819,56.635,166.908z"/>
	<path d="M278.032,110.538c10.637,4.564,21.548,12.523,33.358,24.331c11.807,11.807,19.766,22.719,24.33,33.357
		c0.813,1.895,2.658,3.03,4.597,3.03c0.658,0,1.327-0.131,1.97-0.406l9.189-3.942c2.537-1.089,3.712-4.029,2.623-6.566
		c-5.584-13.018-14.929-25.977-28.568-39.615c-13.639-13.639-26.596-22.983-39.612-28.567c-2.536-1.089-5.477,0.084-6.566,2.623
		l-3.943,9.189c-0.523,1.219-0.54,2.595-0.049,3.827C275.853,109.03,276.814,110.015,278.032,110.538z"/>
</g>
<g>
</g>
<g>
</g>
<g>
</g>
<g>
</g>
<g>
</g>
<g>
</g>
<g>
</g>
<g>
</g>
<g>
</g>
<g>
</g>
<g>
</g>
<g>
</g>
<g>
</g>
<g>
</g>
<g>
</g>
</svg>
